<?xml version="1.0" encoding="UTF-8" standalone="no"?>
<!-- Created with Inkscape (http://www.inkscape.org/) -->

<svg
   xmlns:dc="http://purl.org/dc/elements/1.1/"
   xmlns:cc="http://creativecommons.org/ns#"
   xmlns:rdf="http://www.w3.org/1999/02/22-rdf-syntax-ns#"
   xmlns:svg="http://www.w3.org/2000/svg"
   xmlns="http://www.w3.org/2000/svg"
   version="1.1"
   width="64"
   height="64"
   id="svg3021">
  <defs
     id="defs3023" />
  <metadata
     id="metadata3026">
    <rdf:RDF>
      <cc:Work
         rdf:about="">
        <dc:format>image/svg+xml</dc:format>
        <dc:type
           rdf:resource="http://purl.org/dc/dcmitype/StillImage" />
        <dc:title></dc:title>
      </cc:Work>
    </rdf:RDF>
  </metadata>
  <g
     transform="translate(-27.551089,0.85762144)"
     id="layer1">
    <rect
       width="29.710144"
       height="29.347826"
       x="58.09708"
       y="2.0136919"
       id="rect3883"
       style="fill:#ef6fec;fill-opacity:1;stroke:none" />
    <path
       d="m 56.74938,39.498776 -8.44256,1.257274 3.13246,-7.94011 z"
       id="path3885"
       style="fill:#4d4d4d;fill-opacity:1;stroke:none" />
    <rect
       width="2.536232"
       height="11.231884"
       x="-64.262161"
       y="14.585052"
       transform="matrix(-0.66616067,-0.74580826,0.74580826,-0.66616067,0,0)"
       id="rect3887"
       style="fill:#4d4d4d;fill-opacity:1;stroke:none" />
    <path
       d="m 36.358187,46.490225 c 22.759963,2.43379 22.759963,2.43379 22.759963,2.43379"
       id="path3891"
       style="fill:#ff0000;stroke:#ff0000;stroke-width:0.88642305px;stroke-linecap:butt;stroke-linejoin:miter;stroke-opacity:1" />
    <path
       d="M 32.89113,50.682249 C 45.045219,45.049745 45.045219,45.049745 45.045219,45.049745"
       id="path3891-6"
       style="fill:#000080;stroke:#000080;stroke-width:0.81186444px;stroke-linecap:butt;stroke-linejoin:miter;stroke-opacity:1" />
    <path
       d="m 42.321571,30.798 c -1.45386,20.628454 -1.45386,20.628454 -1.45386,20.628454"
       id="path3891-2"
       style="fill:#ff0000;stroke:#008000;stroke-width:0.85235667px;stroke-linecap:butt;stroke-linejoin:miter;stroke-opacity:1" />
    <rect
       width="12.649917"
       height="16.83082"
       x="66.46566"
       y="9.1122274"
       id="rect3791"
       style="fill:none;stroke:#ff6600;stroke-width:0.40000001;stroke-linecap:round;stroke-miterlimit:4;stroke-opacity:1;stroke-dasharray:none;stroke-dashoffset:0" />
    <path
       d="m 39.772195,26.800671 a 0.85762143,0.85762143 0 1 1 -1.715243,0 0.85762143,0.85762143 0 1 1 1.715243,0 z"
       transform="translate(27.551089,-0.85762144)"
       id="path3789"
       style="fill:#ff0000;fill-opacity:1;stroke:#ff0000;stroke-width:0;stroke-linecap:round;stroke-miterlimit:4;stroke-opacity:1;stroke-dasharray:none;stroke-dashoffset:0" />
    <path
       d="m 57.460636,10.452261 a 4.5561137,4.5561137 0 1 1 -9.112228,0 4.5561137,4.5561137 0 1 1 9.112228,0 z"
       transform="translate(26.157454,-1.0720268)"
       id="path3793"
       style="fill:none;stroke:#ff6600;stroke-width:0.40000001;stroke-linecap:round;stroke-miterlimit:4;stroke-opacity:1;stroke-dasharray:none;stroke-dashoffset:0" />
  </g>
</svg>
